<svg xmlns="http://www.w3.org/2000/svg" xmlns:xlink="http://www.w3.org/1999/xlink" width="500" zoomAndPan="magnify" viewBox="0 0 375 374.999991" height="500" preserveAspectRatio="xMidYMid meet" version="1.0"><defs><clipPath id="id1"><path d="M 57 60.035156 L 318 60.035156 L 318 314 L 57 314 Z M 57 60.035156 " clip-rule="nonzero"/></clipPath></defs><g clip-path="url(#id1)"><path fill="rgb(0%, 0%, 0%)" d="M 228.460938 313.625 C 230.871094 312.820312 233.257812 311.945312 235.617188 310.996094 C 237.976562 310.050781 240.308594 309.035156 242.609375 307.953125 C 244.910156 306.871094 247.175781 305.71875 249.410156 304.503906 C 251.644531 303.285156 253.839844 302.003906 255.996094 300.660156 C 258.15625 299.3125 260.273438 297.90625 262.347656 296.433594 C 264.421875 294.964844 266.453125 293.433594 268.4375 291.84375 C 270.425781 290.253906 272.363281 288.605469 274.25 286.902344 C 276.140625 285.199219 277.976562 283.441406 279.765625 281.628906 C 281.550781 279.816406 283.28125 277.953125 284.957031 276.039062 C 286.632812 274.125 288.253906 272.164062 289.816406 270.152344 C 291.375 268.144531 292.878906 266.089844 294.316406 263.992188 C 295.757812 261.894531 297.136719 259.757812 298.453125 257.578125 C 299.769531 255.398438 301.019531 253.183594 302.203125 250.929688 C 303.390625 248.679688 304.507812 246.394531 305.558594 244.074219 C 306.613281 241.757812 307.59375 239.410156 308.507812 237.035156 C 309.421875 234.65625 310.265625 232.257812 311.039062 229.832031 C 311.8125 227.40625 312.511719 224.957031 313.140625 222.492188 C 313.773438 220.023438 314.328125 217.542969 314.8125 215.042969 C 315.296875 212.542969 315.707031 210.03125 316.042969 207.507812 C 316.378906 204.984375 316.640625 202.449219 316.828125 199.910156 C 317.015625 197.371094 317.128906 194.828125 317.167969 192.285156 C 317.207031 189.738281 317.171875 187.191406 317.058594 184.648438 C 316.949219 182.105469 316.765625 179.566406 316.503906 177.035156 C 316.246094 174.5 315.910156 171.976562 315.503906 169.464844 C 315.097656 166.953125 314.617188 164.453125 314.0625 161.96875 C 313.507812 159.480469 312.882812 157.015625 312.183594 154.566406 C 311.484375 152.121094 310.714844 149.695312 309.871094 147.292969 C 309.03125 144.886719 308.121094 142.511719 307.140625 140.164062 C 306.160156 137.8125 305.109375 135.496094 303.992188 133.207031 C 302.878906 130.921875 301.695312 128.667969 300.445312 126.449219 C 299.195312 124.230469 297.882812 122.050781 296.507812 119.910156 C 295.132812 117.769531 293.691406 115.671875 292.195312 113.617188 C 290.695312 111.5625 289.136719 109.550781 287.515625 107.585938 C 285.898438 105.621094 284.226562 103.707031 282.496094 101.839844 C 280.765625 99.976562 278.984375 98.164062 277.148438 96.402344 C 275.308594 94.640625 273.421875 92.933594 271.488281 91.285156 C 269.550781 89.636719 267.566406 88.042969 265.539062 86.511719 C 263.507812 84.976562 261.433594 83.503906 259.320312 82.09375 C 257.203125 80.683594 255.046875 79.335938 252.851562 78.050781 C 250.65625 76.765625 248.425781 75.546875 246.160156 74.394531 C 243.890625 73.242188 241.59375 72.15625 239.261719 71.140625 C 236.933594 70.121094 234.574219 69.171875 232.1875 68.292969 C 229.804688 67.414062 227.394531 66.605469 224.960938 65.871094 C 222.527344 65.132812 220.074219 64.46875 217.601562 63.875 C 215.128906 63.28125 212.640625 62.761719 210.136719 62.316406 C 207.636719 61.871094 205.121094 61.496094 202.597656 61.199219 C 200.070312 60.902344 197.539062 60.675781 195.003906 60.527344 C 192.464844 60.378906 189.925781 60.304688 187.382812 60.304688 C 184.839844 60.304688 182.300781 60.378906 179.761719 60.527344 C 177.222656 60.675781 174.691406 60.902344 172.167969 61.199219 C 169.644531 61.496094 167.128906 61.871094 164.625 62.316406 C 162.125 62.761719 159.636719 63.28125 157.164062 63.875 C 154.691406 64.46875 152.238281 65.132812 149.804688 65.871094 C 147.371094 66.605469 144.960938 67.414062 142.574219 68.292969 C 140.1875 69.171875 137.832031 70.121094 135.5 71.140625 C 133.171875 72.15625 130.871094 73.242188 128.605469 74.394531 C 126.339844 75.546875 124.105469 76.765625 121.910156 78.050781 C 119.71875 79.335938 117.5625 80.683594 115.445312 82.09375 C 113.328125 83.503906 111.257812 84.976562 109.226562 86.511719 C 107.195312 88.042969 105.214844 89.636719 103.277344 91.285156 C 101.339844 92.933594 99.453125 94.640625 97.617188 96.402344 C 95.78125 98.164062 94 99.976562 92.269531 101.839844 C 90.539062 103.707031 88.863281 105.621094 87.246094 107.585938 C 85.628906 109.550781 84.070312 111.5625 82.570312 113.617188 C 81.070312 115.671875 79.632812 117.769531 78.257812 119.910156 C 76.878906 122.050781 75.566406 124.230469 74.316406 126.449219 C 73.070312 128.667969 71.886719 130.921875 70.769531 133.207031 C 69.652344 135.496094 68.605469 137.8125 67.625 140.164062 C 66.644531 142.511719 65.734375 144.886719 64.890625 147.292969 C 64.050781 149.695312 63.28125 152.121094 62.582031 154.566406 C 61.882812 157.015625 61.257812 159.480469 60.703125 161.96875 C 60.148438 164.453125 59.667969 166.953125 59.257812 169.464844 C 58.851562 171.976562 58.519531 174.5 58.257812 177.035156 C 58 179.566406 57.816406 182.105469 57.703125 184.648438 C 57.59375 187.191406 57.558594 189.738281 57.597656 192.285156 C 57.632812 194.828125 57.746094 197.371094 57.9375 199.910156 C 58.125 202.449219 58.386719 204.984375 58.722656 207.507812 C 59.058594 210.03125 59.46875 212.542969 59.953125 215.042969 C 60.4375 217.542969 60.992188 220.023438 61.621094 222.492188 C 62.25 224.957031 62.953125 227.40625 63.726562 229.832031 C 64.5 232.257812 65.34375 234.65625 66.253906 237.035156 C 67.167969 239.410156 68.152344 241.757812 69.203125 244.074219 C 70.253906 246.394531 71.375 248.679688 72.558594 250.929688 C 73.746094 253.183594 74.996094 255.398438 76.3125 257.578125 C 77.625 259.757812 79.003906 261.894531 80.445312 263.992188 C 81.886719 266.089844 83.386719 268.144531 84.949219 270.152344 C 86.511719 272.164062 88.128906 274.125 89.808594 276.039062 C 91.484375 277.953125 93.214844 279.816406 95 281.628906 C 96.785156 283.441406 98.625 285.199219 100.511719 286.902344 C 102.402344 288.605469 104.339844 290.253906 106.324219 291.84375 C 108.308594 293.433594 110.339844 294.964844 112.417969 296.433594 C 114.492188 297.90625 116.609375 299.3125 118.765625 300.660156 C 120.925781 302.003906 123.121094 303.285156 125.355469 304.503906 C 127.585938 305.71875 129.855469 306.871094 132.15625 307.953125 C 134.457031 309.035156 136.785156 310.050781 139.144531 310.996094 C 141.507812 311.945312 143.890625 312.820312 146.304688 313.625 C 152.816406 314.820312 155.148438 310.800781 155.148438 307.320312 C 155.148438 304.984375 155.148438 299.765625 155.148438 292.703125 C 155.140625 292.238281 155.085938 291.785156 154.980469 291.335938 C 154.878906 290.886719 154.730469 290.449219 154.535156 290.03125 C 154.339844 289.613281 154.101562 289.222656 153.824219 288.851562 C 153.546875 288.484375 153.234375 288.148438 152.886719 287.847656 C 152.539062 287.542969 152.164062 287.28125 151.761719 287.058594 C 151.355469 286.835938 150.933594 286.65625 150.492188 286.523438 C 150.050781 286.386719 149.601562 286.300781 149.144531 286.261719 C 148.683594 286.222656 148.226562 286.230469 147.769531 286.289062 C 117.921875 289.496094 111.355469 267.59375 111.355469 267.59375 C 105.441406 252.539062 96.921875 248.515625 96.921875 248.515625 C 85.148438 240.417969 97.792969 240.582031 97.792969 240.582031 C 99.851562 240.867188 101.851562 241.382812 103.792969 242.128906 C 105.734375 242.875 107.566406 243.832031 109.289062 245.003906 C 111.011719 246.171875 112.578125 247.519531 113.992188 249.050781 C 115.402344 250.578125 116.625 252.25 117.652344 254.058594 C 118.035156 254.800781 118.449219 255.519531 118.898438 256.222656 C 119.347656 256.921875 119.828125 257.601562 120.34375 258.253906 C 120.855469 258.910156 121.398438 259.542969 121.96875 260.148438 C 122.539062 260.75 123.140625 261.328125 123.765625 261.878906 C 124.390625 262.425781 125.039062 262.945312 125.714844 263.433594 C 126.390625 263.921875 127.085938 264.375 127.800781 264.796875 C 128.519531 265.21875 129.253906 265.609375 130.007812 265.960938 C 130.757812 266.316406 131.527344 266.632812 132.308594 266.914062 C 133.09375 267.195312 133.886719 267.441406 134.691406 267.648438 C 135.496094 267.855469 136.3125 268.023438 137.132812 268.15625 C 137.953125 268.285156 138.777344 268.378906 139.609375 268.433594 C 140.4375 268.484375 141.269531 268.5 142.101562 268.476562 C 142.933594 268.453125 143.761719 268.386719 144.585938 268.285156 C 145.410156 268.183594 146.230469 268.042969 147.042969 267.863281 C 147.855469 267.683594 148.65625 267.46875 149.449219 267.214844 C 150.242188 266.960938 151.019531 266.667969 151.785156 266.34375 C 152.316406 266.148438 152.816406 265.894531 153.28125 265.574219 C 153.75 265.25 154.167969 264.878906 154.539062 264.449219 C 154.90625 264.019531 155.21875 263.554688 155.46875 263.046875 C 155.71875 262.539062 155.902344 262.003906 156.015625 261.449219 C 156.488281 259.355469 157.160156 257.328125 158.023438 255.363281 C 158.246094 254.90625 158.414062 254.433594 158.527344 253.9375 C 158.640625 253.445312 158.695312 252.945312 158.695312 252.4375 C 158.695312 251.929688 158.636719 251.429688 158.523438 250.933594 C 158.40625 250.441406 158.238281 249.964844 158.015625 249.511719 C 157.796875 249.054688 157.523438 248.628906 157.207031 248.238281 C 156.886719 247.84375 156.527344 247.488281 156.128906 247.175781 C 155.730469 246.867188 155.300781 246.601562 154.84375 246.386719 C 154.382812 246.171875 153.90625 246.011719 153.414062 245.90625 C 128.070312 240.960938 104.574219 227.046875 104.574219 182.972656 C 104.535156 180.300781 104.707031 177.640625 105.089844 174.996094 C 105.472656 172.351562 106.058594 169.75 106.851562 167.199219 C 107.644531 164.648438 108.632812 162.171875 109.816406 159.777344 C 111 157.382812 112.363281 155.09375 113.90625 152.917969 C 115.058594 151.355469 115.839844 149.628906 116.246094 147.734375 C 116.652344 145.835938 116.652344 143.941406 116.242188 142.046875 C 115.015625 135.886719 115.015625 129.726562 116.242188 123.566406 C 116.402344 122.75 116.648438 121.957031 116.972656 121.191406 C 117.300781 120.425781 117.703125 119.703125 118.179688 119.019531 C 118.660156 118.335938 119.203125 117.710938 119.8125 117.144531 C 120.421875 116.578125 121.082031 116.078125 121.792969 115.648438 C 122.507812 115.21875 123.257812 114.867188 124.042969 114.59375 C 124.828125 114.320312 125.632812 114.132812 126.460938 114.027344 C 127.285156 113.921875 128.113281 113.90625 128.941406 113.976562 C 129.769531 114.042969 130.582031 114.199219 131.382812 114.4375 C 138.050781 116.625 144.328125 119.628906 150.210938 123.460938 C 151.792969 124.410156 153.492188 125.027344 155.316406 125.308594 C 157.136719 125.589844 158.945312 125.515625 160.738281 125.089844 C 169.539062 123.125 178.445312 122.140625 187.464844 122.140625 C 196.480469 122.140625 205.386719 123.125 214.1875 125.089844 C 215.980469 125.515625 217.789062 125.589844 219.613281 125.308594 C 221.433594 125.027344 223.136719 124.410156 224.714844 123.460938 C 230.441406 119.742188 236.539062 116.789062 243.003906 114.601562 C 243.421875 114.472656 243.847656 114.367188 244.277344 114.285156 C 244.707031 114.203125 245.136719 114.144531 245.574219 114.109375 C 246.007812 114.074219 246.445312 114.0625 246.882812 114.074219 C 247.320312 114.085938 247.757812 114.121094 248.1875 114.179688 C 248.621094 114.238281 249.050781 114.320312 249.476562 114.425781 C 249.902344 114.53125 250.320312 114.65625 250.730469 114.808594 C 251.140625 114.957031 251.542969 115.128906 251.933594 115.320312 C 252.328125 115.515625 252.710938 115.726562 253.078125 115.960938 C 253.449219 116.195312 253.804688 116.449219 254.148438 116.722656 C 254.488281 116.996094 254.816406 117.285156 255.128906 117.589844 C 255.441406 117.898438 255.734375 118.222656 256.011719 118.5625 C 256.285156 118.902344 256.542969 119.253906 256.785156 119.621094 C 257.023438 119.988281 257.242188 120.367188 257.4375 120.757812 C 257.636719 121.148438 257.8125 121.546875 257.96875 121.957031 C 258.125 122.367188 258.257812 122.78125 258.367188 123.207031 C 258.480469 123.628906 258.566406 124.058594 258.632812 124.492188 C 259.761719 130.398438 259.761719 136.304688 258.632812 142.210938 C 258.222656 144.105469 258.21875 146 258.628906 147.898438 C 259.035156 149.792969 259.8125 151.519531 260.964844 153.078125 C 262.511719 155.257812 263.875 157.546875 265.058594 159.941406 C 266.242188 162.335938 267.230469 164.808594 268.023438 167.363281 C 268.8125 169.914062 269.402344 172.511719 269.785156 175.15625 C 270.164062 177.804688 270.335938 180.460938 270.296875 183.132812 C 270.296875 227.320312 246.746094 241.125 221.460938 246.015625 C 220.96875 246.109375 220.496094 246.257812 220.039062 246.460938 C 219.582031 246.660156 219.152344 246.914062 218.753906 247.214844 C 218.351562 247.511719 217.992188 247.855469 217.667969 248.238281 C 217.347656 248.621094 217.074219 249.035156 216.84375 249.480469 C 216.617188 249.925781 216.441406 250.390625 216.320312 250.875 C 216.199219 251.363281 216.132812 251.855469 216.125 252.355469 C 216.117188 252.855469 216.164062 253.351562 216.265625 253.839844 C 216.371094 254.328125 216.527344 254.800781 216.738281 255.253906 C 219.003906 260.453125 220.089844 265.886719 219.996094 271.558594 L 219.996094 307.375 C 219.996094 307.375 221.839844 314.710938 228.460938 313.625 Z M 228.460938 313.625 " fill-opacity="1" fill-rule="nonzero"/></g></svg>