<svg xmlns="http://www.w3.org/2000/svg" xmlns:xlink="http://www.w3.org/1999/xlink" width="500" zoomAndPan="magnify" viewBox="0 0 375 374.999991" height="500" preserveAspectRatio="xMidYMid meet" version="1.0"><defs><clipPath id="id1"><path d="M 81.632812 81.632812 L 293.132812 81.632812 L 293.132812 293.132812 L 81.632812 293.132812 Z M 81.632812 81.632812 " clip-rule="nonzero"/></clipPath></defs><g clip-path="url(#id1)"><path fill="rgb(0%, 46.669006%, 70.979309%)" d="M 113.359375 81.632812 L 261.40625 81.632812 C 262.445312 81.632812 263.484375 81.683594 264.515625 81.785156 C 265.550781 81.886719 266.578125 82.039062 267.597656 82.242188 C 268.617188 82.445312 269.621094 82.699219 270.617188 83 C 271.613281 83.300781 272.589844 83.648438 273.546875 84.046875 C 274.507812 84.445312 275.445312 84.890625 276.363281 85.378906 C 277.277344 85.867188 278.167969 86.402344 279.035156 86.980469 C 279.898438 87.558594 280.730469 88.175781 281.535156 88.835938 C 282.335938 89.492188 283.105469 90.191406 283.839844 90.925781 C 284.574219 91.660156 285.273438 92.429688 285.929688 93.230469 C 286.589844 94.035156 287.207031 94.867188 287.785156 95.734375 C 288.363281 96.597656 288.898438 97.488281 289.386719 98.402344 C 289.875 99.320312 290.320312 100.257812 290.71875 101.21875 C 291.117188 102.175781 291.464844 103.15625 291.765625 104.148438 C 292.070312 105.144531 292.320312 106.148438 292.523438 107.167969 C 292.726562 108.1875 292.878906 109.214844 292.980469 110.25 C 293.082031 111.28125 293.132812 112.320312 293.132812 113.359375 L 293.132812 261.40625 C 293.132812 262.445312 293.082031 263.484375 292.980469 264.515625 C 292.878906 265.550781 292.726562 266.578125 292.523438 267.597656 C 292.320312 268.617188 292.070312 269.621094 291.765625 270.617188 C 291.464844 271.613281 291.117188 272.589844 290.71875 273.546875 C 290.320312 274.507812 289.875 275.445312 289.386719 276.363281 C 288.898438 277.277344 288.363281 278.167969 287.785156 279.035156 C 287.207031 279.898438 286.589844 280.730469 285.929688 281.535156 C 285.273438 282.335938 284.574219 283.105469 283.839844 283.839844 C 283.105469 284.574219 282.335938 285.273438 281.535156 285.929688 C 280.730469 286.589844 279.898438 287.207031 279.035156 287.785156 C 278.167969 288.363281 277.277344 288.898438 276.363281 289.386719 C 275.445312 289.875 274.507812 290.320312 273.546875 290.71875 C 272.589844 291.117188 271.613281 291.464844 270.617188 291.765625 C 269.621094 292.070312 268.617188 292.320312 267.597656 292.523438 C 266.578125 292.726562 265.550781 292.878906 264.515625 292.980469 C 263.484375 293.082031 262.445312 293.132812 261.40625 293.132812 L 113.359375 293.132812 C 112.320312 293.132812 111.28125 293.082031 110.25 292.980469 C 109.214844 292.878906 108.1875 292.726562 107.167969 292.523438 C 106.148438 292.320312 105.144531 292.070312 104.148438 291.765625 C 103.15625 291.464844 102.175781 291.117188 101.21875 290.71875 C 100.257812 290.320312 99.320312 289.875 98.402344 289.386719 C 97.488281 288.898438 96.597656 288.363281 95.730469 287.785156 C 94.867188 287.207031 94.035156 286.589844 93.230469 285.929688 C 92.429688 285.273438 91.660156 284.574219 90.925781 283.839844 C 90.191406 283.105469 89.492188 282.335938 88.835938 281.535156 C 88.175781 280.730469 87.558594 279.898438 86.980469 279.035156 C 86.402344 278.167969 85.867188 277.277344 85.378906 276.363281 C 84.890625 275.445312 84.445312 274.507812 84.046875 273.546875 C 83.648438 272.589844 83.300781 271.613281 83 270.617188 C 82.699219 269.621094 82.445312 268.617188 82.242188 267.597656 C 82.039062 266.578125 81.886719 265.550781 81.785156 264.515625 C 81.683594 263.484375 81.632812 262.445312 81.632812 261.40625 L 81.632812 113.359375 C 81.632812 112.320312 81.683594 111.28125 81.785156 110.25 C 81.886719 109.214844 82.039062 108.1875 82.242188 107.167969 C 82.445312 106.148438 82.699219 105.144531 83 104.148438 C 83.300781 103.15625 83.648438 102.175781 84.046875 101.21875 C 84.445312 100.257812 84.890625 99.320312 85.378906 98.402344 C 85.867188 97.488281 86.402344 96.597656 86.980469 95.734375 C 87.558594 94.867188 88.175781 94.035156 88.835938 93.230469 C 89.492188 92.429688 90.191406 91.660156 90.925781 90.925781 C 91.660156 90.191406 92.429688 89.492188 93.230469 88.835938 C 94.035156 88.175781 94.867188 87.558594 95.730469 86.980469 C 96.597656 86.402344 97.488281 85.867188 98.402344 85.378906 C 99.320312 84.890625 100.257812 84.445312 101.21875 84.046875 C 102.175781 83.648438 103.15625 83.300781 104.148438 83 C 105.144531 82.699219 106.148438 82.445312 107.167969 82.242188 C 108.1875 82.039062 109.214844 81.886719 110.25 81.785156 C 111.28125 81.683594 112.320312 81.632812 113.359375 81.632812 Z M 113.359375 81.632812 " fill-opacity="1" fill-rule="nonzero"/></g><path fill="rgb(100%, 100%, 100%)" d="M 155.574219 138.640625 C 155.574219 139.640625 155.476562 140.636719 155.28125 141.621094 C 155.085938 142.605469 154.796875 143.5625 154.410156 144.488281 C 154.027344 145.414062 153.558594 146.296875 153 147.128906 C 152.441406 147.964844 151.808594 148.738281 151.097656 149.445312 C 150.390625 150.15625 149.617188 150.789062 148.78125 151.347656 C 147.949219 151.90625 147.066406 152.375 146.140625 152.757812 C 145.214844 153.144531 144.257812 153.433594 143.273438 153.628906 C 142.289062 153.824219 141.292969 153.921875 140.292969 153.921875 C 139.289062 153.921875 138.292969 153.824219 137.308594 153.628906 C 136.324219 153.433594 135.371094 153.144531 134.441406 152.757812 C 133.515625 152.375 132.632812 151.90625 131.800781 151.347656 C 130.964844 150.789062 130.191406 150.15625 129.484375 149.445312 C 128.773438 148.738281 128.140625 147.964844 127.582031 147.128906 C 127.023438 146.296875 126.554688 145.414062 126.171875 144.488281 C 125.785156 143.5625 125.496094 142.605469 125.300781 141.621094 C 125.105469 140.636719 125.007812 139.640625 125.007812 138.640625 C 125.007812 137.636719 125.105469 136.640625 125.300781 135.65625 C 125.496094 134.671875 125.785156 133.71875 126.171875 132.789062 C 126.554688 131.863281 127.023438 130.980469 127.582031 130.148438 C 128.140625 129.3125 128.773438 128.539062 129.484375 127.832031 C 130.191406 127.121094 130.964844 126.488281 131.800781 125.929688 C 132.632812 125.371094 133.515625 124.902344 134.441406 124.519531 C 135.371094 124.132812 136.324219 123.84375 137.308594 123.648438 C 138.292969 123.453125 139.289062 123.355469 140.292969 123.355469 C 141.292969 123.355469 142.289062 123.453125 143.273438 123.648438 C 144.257812 123.84375 145.214844 124.132812 146.140625 124.519531 C 147.066406 124.902344 147.949219 125.371094 148.78125 125.929688 C 149.617188 126.488281 150.390625 127.121094 151.097656 127.832031 C 151.808594 128.539062 152.441406 129.3125 153 130.148438 C 153.558594 130.980469 154.027344 131.863281 154.410156 132.789062 C 154.796875 133.71875 155.085938 134.671875 155.28125 135.65625 C 155.476562 136.640625 155.574219 137.636719 155.574219 138.640625 Z M 155.574219 138.640625 " fill-opacity="1" fill-rule="nonzero"/><path stroke-linecap="butt" transform="matrix(0.413086, 0, 0, 0.413086, 81.632884, 81.632894)" fill-opacity="1" fill="rgb(100%, 100%, 100%)" fill-rule="nonzero" stroke-linejoin="miter" d="M 243.999844 194.004545 L 243.999844 391.99983 M 142.004565 194.004545 L 142.004565 391.99983 " stroke="rgb(100%, 100%, 100%)" stroke-width="66" stroke-opacity="1" stroke-miterlimit="4"/><path fill="rgb(100%, 100%, 100%)" d="M 195.644531 198.125 C 195.644531 189.863281 201.015625 181.601562 210.515625 181.601562 C 220.429688 181.601562 224.148438 189.035156 224.148438 200.1875 L 224.148438 243.5625 L 251.410156 243.5625 L 251.410156 196.882812 C 251.410156 171.6875 238.191406 160.121094 220.015625 160.121094 C 205.972656 160.121094 198.949219 167.96875 195.644531 173.339844 " fill-opacity="1" fill-rule="nonzero"/></svg>