<svg xmlns="http://www.w3.org/2000/svg" xmlns:xlink="http://www.w3.org/1999/xlink" width="500" zoomAndPan="magnify" viewBox="0 0 375 374.999991" height="500" preserveAspectRatio="xMidYMid meet" version="1.0"><defs><clipPath id="id1"><path d="M 69.246094 104.277344 L 305.496094 104.277344 L 305.496094 270.777344 L 69.246094 270.777344 Z M 69.246094 104.277344 " clip-rule="nonzero"/></clipPath></defs><g clip-path="url(#id1)"><path fill="rgb(100%, 0%, 0%)" d="M 300.335938 130.398438 C 300 129.148438 299.582031 127.925781 299.082031 126.734375 C 298.585938 125.539062 298.015625 124.378906 297.367188 123.261719 C 296.71875 122.140625 296 121.066406 295.210938 120.042969 C 294.425781 119.015625 293.574219 118.042969 292.660156 117.128906 C 291.746094 116.214844 290.777344 115.363281 289.753906 114.574219 C 288.726562 113.785156 287.65625 113.066406 286.539062 112.417969 C 285.417969 111.769531 284.265625 111.195312 283.070312 110.695312 C 281.878906 110.199219 280.65625 109.78125 279.410156 109.441406 C 261.066406 104.425781 187.222656 104.425781 187.222656 104.425781 C 187.222656 104.425781 113.375 104.574219 95.023438 109.589844 C 93.777344 109.929688 92.558594 110.347656 91.363281 110.84375 C 90.171875 111.34375 89.015625 111.917969 87.898438 112.566406 C 86.78125 113.214844 85.707031 113.933594 84.683594 114.722656 C 83.660156 115.511719 82.6875 116.363281 81.773438 117.277344 C 80.863281 118.191406 80.011719 119.164062 79.222656 120.1875 C 78.4375 121.214844 77.71875 122.289062 77.070312 123.410156 C 76.421875 124.527344 75.847656 125.6875 75.351562 126.878906 C 74.855469 128.074219 74.4375 129.296875 74.097656 130.546875 C 69.246094 148.921875 69.246094 187.34375 69.246094 187.34375 C 69.246094 187.34375 69.246094 225.761719 74.25 244.289062 C 74.589844 245.535156 75.007812 246.757812 75.503906 247.953125 C 76 249.148438 76.574219 250.304688 77.222656 251.425781 C 77.871094 252.542969 78.585938 253.617188 79.375 254.644531 C 80.160156 255.671875 81.011719 256.640625 81.925781 257.554688 C 82.839844 258.472656 83.808594 259.324219 84.835938 260.113281 C 85.859375 260.902344 86.929688 261.621094 88.050781 262.269531 C 89.167969 262.917969 90.324219 263.492188 91.515625 263.988281 C 92.707031 264.488281 93.929688 264.90625 95.175781 265.242188 C 113.523438 270.261719 187.371094 270.261719 187.371094 270.261719 C 187.371094 270.261719 261.214844 270.261719 279.566406 265.246094 C 280.8125 264.910156 282.035156 264.492188 283.226562 263.992188 C 284.417969 263.496094 285.574219 262.921875 286.691406 262.273438 C 287.8125 261.625 288.882812 260.90625 289.90625 260.117188 C 290.933594 259.328125 291.902344 258.476562 292.816406 257.558594 C 293.730469 256.644531 294.582031 255.675781 295.367188 254.648438 C 296.15625 253.621094 296.875 252.546875 297.519531 251.429688 C 298.167969 250.308594 298.742188 249.152344 299.238281 247.957031 C 299.734375 246.761719 300.152344 245.539062 300.492188 244.289062 C 305.496094 225.914062 305.496094 187.34375 305.496094 187.34375 C 305.496094 187.34375 305.347656 148.921875 300.335938 130.398438 Z M 300.335938 130.398438 " fill-opacity="1" fill-rule="nonzero"/></g><path fill="rgb(100%, 100%, 100%)" d="M 163.714844 222.875 L 224.972656 187.34375 L 163.710938 151.808594 Z M 163.714844 222.875 " fill-opacity="1" fill-rule="nonzero"/></svg>